<svg width="34" height="34" viewBox="0 0 34 34" fill="none" xmlns="http://www.w3.org/2000/svg">
<path fill-rule="evenodd" clip-rule="evenodd" d="M33.8104 19.6168C33.7238 21.5596 32.359 20.8998 32.1954 20.7893C32.1954 20.7893 31.5637 20.4567 31.0213 20.1459C30.5119 19.8516 30.3047 19.357 30.4072 18.4156C30.4694 17.8493 30.4864 17.2718 30.4704 16.6869C30.2632 9.22707 24.0268 3.32697 16.567 3.53256C16.1829 3.54319 15.8036 3.56975 15.429 3.61437C14.4829 3.727 13.9734 3.68716 13.3986 2.69105C13.2004 2.34733 13.0129 1.97546 12.8578 1.68964C12.6894 1.37726 12.5714 1.15998 12.5714 1.15998C12.7574 0.78279 13.0835 0.432694 13.6573 0.320069C14.57 0.141036 15.5087 0.0331915 16.4692 0.00662878C25.8735 -0.253686 33.7355 7.18546 33.9969 16.5897C34.025 17.6198 33.854 18.6207 33.8104 19.6168ZM26.3038 17.5561C25.8878 17.3653 25.4517 17.0769 25.0474 16.8665C23.8106 16.221 24.1506 16.0006 23.7362 14.8881C22.8289 12.4497 20.8696 10.2811 18.2542 10.0495C17.6736 9.99739 17.1747 9.70414 16.9091 9.18723C16.6058 8.59753 16.1207 7.82934 15.8753 7.27471C15.658 6.78224 16.0703 6.62074 16.652 6.60533C22.4177 6.44489 27.2388 11.0057 27.3987 16.7719C27.4019 16.8681 27.4062 16.9643 27.4019 17.0593C27.3652 17.9843 26.8196 17.7925 26.3038 17.5561ZM15.6484 25.646C17.2326 26.5954 18.7526 25.6912 19.3167 25.2741L19.9203 24.6488C19.9203 24.6488 20.7161 23.5391 21.8535 24.1569C22.992 24.7747 27.5862 27.9814 27.5862 27.9814C27.5862 27.9814 29.8659 29.4721 27.7547 31.2672L26.9355 31.9291C21.7154 35.59 15.0125 31.9233 15.0125 31.9233C1.58456 24.5931 -0.21055 14.3616 0.0178894 11.767C0.287235 8.71335 2.55516 7.33634 2.55516 7.33634C4.59145 5.85945 5.86434 7.58443 5.86434 7.58443C5.86434 7.58443 9.68777 12.4943 10.321 13.6668C10.9543 14.8392 9.79615 15.7009 9.79615 15.7009L9.07045 16.4505C7.92879 17.8605 9.68405 19.8224 9.68405 19.8224C13.4039 24.5904 14.2061 24.7811 15.6484 25.646Z" fill="#FF7400"/>
</svg>
