<svg width="34" height="25" viewBox="0 0 34 25" fill="none" xmlns="http://www.w3.org/2000/svg">
<path d="M1.77419 0.53277C2.3358 0.186701 2.98242 0.00303086 3.64268 0H30.357C31.0172 0.00303552 31.6638 0.186697 32.2254 0.53277L17.6738 10.235C17.2655 10.5082 16.7343 10.5082 16.326 10.235L1.77419 0.53277ZM19.0171 12.2552C17.7937 13.0733 16.1984 13.0733 14.9751 12.2552L0.22768 2.41967C0.0804459 2.81128 0.00455406 3.22565 0 3.64305V20.6431C0 22.6542 1.63169 24.2859 3.64286 24.2859H30.3571C32.3683 24.2859 34 22.6542 34 20.6431V3.64305C33.9954 3.22565 33.9196 2.81128 33.7738 2.41967L19.0171 12.2552Z" fill="#FF7400"/>
</svg>
