<svg width="28" height="21" viewBox="0 0 28 21" fill="none" xmlns="http://www.w3.org/2000/svg">
<path d="M27.9444 9.94961C26.8466 7.11001 24.9408 4.65431 22.4626 2.88603C19.9843 1.11775 17.0423 0.114405 14 0C10.9577 0.114405 8.01566 1.11775 5.53742 2.88603C3.05917 4.65431 1.15339 7.11001 0.0556045 9.94961C-0.0185348 10.1547 -0.0185348 10.3792 0.0556045 10.5843C1.15339 13.4239 3.05917 15.8796 5.53742 17.6479C8.01566 19.4162 10.9577 20.4195 14 20.5339C17.0423 20.4195 19.9843 19.4162 22.4626 17.6479C24.9408 15.8796 26.8466 13.4239 27.9444 10.5843C28.0185 10.3792 28.0185 10.1547 27.9444 9.94961ZM14 18.6672C9.05319 18.6672 3.82638 14.9991 1.93166 10.267C3.82638 5.53482 9.05319 1.86672 14 1.86672C18.9468 1.86672 24.1736 5.53482 26.0683 10.267C24.1736 14.9991 18.9468 18.6672 14 18.6672Z" fill="white"/>
<path d="M14.0001 4.6668C12.8925 4.6668 11.8097 4.99524 10.8888 5.6106C9.96783 6.22595 9.25005 7.10057 8.82619 8.12387C8.40232 9.14716 8.29142 10.2732 8.5075 11.3595C8.72359 12.4458 9.25695 13.4437 10.0401 14.2269C10.8233 15.0101 11.8212 15.5434 12.9075 15.7595C13.9938 15.9756 15.1199 15.8647 16.1431 15.4408C17.1664 15.017 18.0411 14.2992 18.6564 13.3782C19.2718 12.4573 19.6002 11.3746 19.6002 10.267C19.6002 8.7817 19.0102 7.35728 17.96 6.30705C16.9097 5.25681 15.4853 4.6668 14.0001 4.6668ZM14.0001 14.0004C13.2617 14.0004 12.5398 13.7814 11.9259 13.3712C11.3119 12.961 10.8334 12.3779 10.5508 11.6957C10.2682 11.0135 10.1943 10.2628 10.3384 9.5386C10.4824 8.81438 10.838 8.14915 11.3601 7.62702C11.8822 7.10489 12.5475 6.74931 13.2717 6.60525C13.9959 6.4612 14.7466 6.53513 15.4288 6.81771C16.111 7.10028 16.6941 7.57881 17.1043 8.19277C17.5145 8.80673 17.7335 9.52855 17.7335 10.267C17.7335 11.2571 17.3402 12.2067 16.64 12.9069C15.9398 13.6071 14.9902 14.0004 14.0001 14.0004Z" fill="white"/>
</svg>
