<svg width="16" height="16" viewBox="0 0 16 16" fill="none" xmlns="http://www.w3.org/2000/svg">
<path d="M15.6171 0.385383C15.4443 0.213464 15.2277 0.0926056 14.9909 0.0360903C14.7541 -0.0204249 14.5064 -0.0104093 14.2749 0.0650364L0.917599 4.53158C0.669873 4.61027 0.450965 4.7608 0.288524 4.96414C0.126082 5.16748 0.0273948 5.41451 0.00492494 5.67405C-0.0175449 5.93358 0.0372109 6.19397 0.162277 6.42233C0.287343 6.65069 0.477109 6.83676 0.707607 6.95707L6.24958 9.70289L8.9886 15.2769C9.0987 15.4951 9.26716 15.6783 9.47516 15.806C9.68316 15.9337 9.92249 16.0008 10.1664 16H10.2577C10.5189 15.9807 10.7683 15.8831 10.9734 15.7199C11.1786 15.5567 11.33 15.3354 11.4081 15.0847L15.9275 1.73084C16.0082 1.50013 16.0218 1.25118 15.9669 1.01298C15.9119 0.774788 15.7906 0.557141 15.6171 0.385383ZM1.48367 5.79466L13.1428 1.89559L6.66956 8.3849L1.48367 5.79466ZM10.2303 14.5539L7.63735 9.35509L14.1106 2.86578L10.2303 14.5539Z" fill="white"/>
</svg>
