<svg width="29" height="28" viewBox="0 0 29 28" fill="none" xmlns="http://www.w3.org/2000/svg">
<path d="M14.5193 9.75343C13.4101 9.75343 12.3463 10.1938 11.562 10.9777C10.7777 11.7617 10.3371 12.8249 10.3371 13.9335C10.3371 15.0421 10.7777 16.1053 11.562 16.8892C12.3463 17.6731 13.4101 18.1135 14.5193 18.1135C15.6285 18.1135 16.6922 17.6731 17.4766 16.8892C18.2609 16.1053 18.7015 15.0421 18.7015 13.9335C18.7015 12.8249 18.2609 11.7617 17.4766 10.9777C16.6922 10.1938 15.6285 9.75343 14.5193 9.75343ZM14.5193 6.96674C16.3679 6.96674 18.1409 7.70073 19.4481 9.00725C20.7553 10.3138 21.4896 12.0858 21.4896 13.9335C21.4896 15.7812 20.7553 17.5532 19.4481 18.8597C18.1409 20.1662 16.3679 20.9002 14.5193 20.9002C12.6706 20.9002 10.8977 20.1662 9.59049 18.8597C8.28329 17.5532 7.54891 15.7812 7.54891 13.9335C7.54891 12.0858 8.28329 10.3138 9.59049 9.00725C10.8977 7.70073 12.6706 6.96674 14.5193 6.96674ZM23.5808 6.6184C23.5808 7.08033 23.3972 7.52333 23.0704 7.84996C22.7436 8.17659 22.3003 8.36009 21.8382 8.36009C21.376 8.36009 20.9328 8.17659 20.606 7.84996C20.2792 7.52333 20.0956 7.08033 20.0956 6.6184C20.0956 6.15648 20.2792 5.71347 20.606 5.38684C20.9328 5.06022 21.376 4.87672 21.8382 4.87672C22.3003 4.87672 22.7436 5.06022 23.0704 5.38684C23.3972 5.71347 23.5808 6.15648 23.5808 6.6184ZM14.5193 2.7867C11.0703 2.7867 10.5071 2.79645 8.90256 2.86751C7.8096 2.91906 7.07632 3.06536 6.39601 3.3301C5.82669 3.53902 5.312 3.87387 4.89041 4.30962C4.45408 4.73097 4.11859 5.24537 3.90898 5.81444C3.64411 6.49718 3.49773 7.22869 3.44755 8.31968C3.37505 9.85794 3.3653 10.3958 3.3653 13.9335C3.3653 17.382 3.37505 17.9435 3.44615 19.5473C3.49773 20.6383 3.64411 21.3726 3.90759 22.0511C4.14458 22.6572 4.4234 23.0933 4.88623 23.5559C5.35603 24.0241 5.79238 24.3042 6.39183 24.5355C7.0805 24.8016 7.81379 24.9493 8.90116 24.9994C10.4402 25.0719 10.9783 25.0803 14.5179 25.0803C17.9682 25.0803 18.53 25.0705 20.1346 24.9994C21.2248 24.9479 21.9581 24.8016 22.6398 24.5382C23.2086 24.3283 23.723 23.9936 24.1454 23.5587C24.6152 23.0906 24.8954 22.6544 25.1268 22.0539C25.3917 21.3684 25.5394 20.6355 25.5896 19.5459C25.6621 18.009 25.6705 17.4698 25.6705 13.9335C25.6705 10.4863 25.6607 9.92342 25.5896 8.31968C25.538 7.23008 25.3903 6.49439 25.1268 5.81444C24.9167 5.24598 24.5818 4.73178 24.1468 4.30962C23.7254 3.87329 23.2106 3.53794 22.6412 3.32871C21.9581 3.06397 21.2248 2.91767 20.1346 2.86751C18.5969 2.79506 18.0588 2.7867 14.5179 2.7867M14.5179 0C18.3056 0 18.7782 0.0139334 20.2657 0.0836008C21.7489 0.153268 22.761 0.385957 23.6491 0.731508C24.5692 1.08542 25.3443 1.56473 26.1194 2.33804C26.8282 3.03457 27.3768 3.87711 27.7267 4.80705C28.0711 5.69461 28.3053 6.70618 28.375 8.1901C28.4405 9.67541 28.4586 10.1478 28.4586 13.9335C28.4586 17.7192 28.4447 18.1915 28.375 19.6769C28.3053 21.1608 28.0711 22.1709 27.7267 23.0599C27.3777 23.9903 26.8291 24.8331 26.1194 25.5289C25.4223 26.2372 24.5793 26.7854 23.6491 27.1354C22.761 27.4796 21.7489 27.7137 20.2657 27.7834C18.7782 27.8488 18.3056 27.867 14.5179 27.867C10.7302 27.867 10.2576 27.853 8.77012 27.7834C7.28683 27.7137 6.27612 27.4796 5.3867 27.1354C4.45592 26.7864 3.61278 26.2381 2.9164 25.5289C2.20742 24.8325 1.65889 23.9899 1.30904 23.0599C0.963307 22.1723 0.730496 21.1608 0.660793 19.6769C0.593877 18.1915 0.577148 17.7192 0.577148 13.9335C0.577148 10.1478 0.591089 9.67541 0.660793 8.1901C0.730496 6.70618 0.963307 5.69601 1.30904 4.80705C1.65788 3.87654 2.20655 3.03377 2.9164 2.33804C3.61298 1.62915 4.45606 1.08086 5.3867 0.731508C6.27473 0.385957 7.28543 0.153268 8.77012 0.0836008C10.259 0.0181134 10.7316 0 14.5193 0" fill="white"/>
</svg>
