<svg width="30" height="30" viewBox="0 0 30 30" fill="none" xmlns="http://www.w3.org/2000/svg">
<rect width="30" height="30" rx="5" fill="#FF7400"/>
<path fill-rule="evenodd" clip-rule="evenodd" d="M7.25163 7.25149C7.64818 6.85502 8.29106 6.85508 8.68753 7.25163L15.0662 13.6315L21.4474 7.25149C21.8439 6.85502 22.4868 6.85508 22.8833 7.25163C23.2798 7.64818 23.2797 8.29106 22.8831 8.68753L16.5027 15.0668L22.8832 21.4473C23.2797 21.8438 23.2797 22.4867 22.8832 22.8832C22.4867 23.2797 21.8438 23.2797 21.4473 22.8832L15.0674 16.5033L8.68746 22.8832C8.29095 23.2797 7.64808 23.2797 7.25156 22.8832C6.85505 22.4867 6.85505 21.8438 7.25156 21.4473L13.6309 15.068L7.25149 8.6874C6.85502 8.29084 6.85508 7.64797 7.25163 7.25149Z" fill="white"/>
</svg>
