<svg width="30" height="30" viewBox="0 0 30 30" fill="none" xmlns="http://www.w3.org/2000/svg">
<rect width="30" height="30" rx="5" fill="#FF7400"/>
<path d="M12.0062 16.2762H21.8657C22.526 16.2762 23.0762 15.726 23.0762 15.0658C23.0762 14.4056 22.526 13.8554 21.8657 13.8554H11.9842C11.3239 13.8554 10.7737 14.4056 10.7737 15.0658C10.7957 15.726 11.3239 16.2762 12.0062 16.2762Z" fill="white"/>
<path d="M16.2757 23.1867H21.8657C22.526 23.1867 23.0762 22.6365 23.0762 21.9763C23.0762 21.316 22.526 20.7658 21.8657 20.7658H16.2757C15.6155 20.7658 15.0653 21.316 15.0653 21.9763C15.0653 22.6585 15.6155 23.1867 16.2757 23.1867Z" fill="white"/>
<path d="M8.15477 9.34373H21.8657C22.526 9.34373 23.0762 8.79353 23.0762 8.13329C23.0762 7.47305 22.526 6.92285 21.8657 6.92285H8.13276C7.47252 6.92285 6.92233 7.47305 6.92233 8.13329C6.94433 8.79353 7.47252 9.34373 8.15477 9.34373Z" fill="white"/>
</svg>
