<svg width="18" height="18" viewBox="0 0 18 18" fill="none" xmlns="http://www.w3.org/2000/svg">
<path fill-rule="evenodd" clip-rule="evenodd" d="M8.00682 1.88335C6.38294 1.88335 4.82556 2.52846 3.6773 3.67676C2.52904 4.82506 1.88396 6.3825 1.88396 8.00644C1.88396 9.63039 2.52904 11.1878 3.6773 12.3361C4.82556 13.4844 6.38294 14.1295 8.00682 14.1295C9.6307 14.1295 11.1881 13.4844 12.3363 12.3361C13.4846 11.1878 14.1297 9.63039 14.1297 8.00644C14.1297 6.3825 13.4846 4.82506 12.3363 3.67676C11.1881 2.52846 9.6307 1.88335 8.00682 1.88335ZM1.80565e-08 8.00644C0.000108791 6.72963 0.305544 5.47135 0.890824 4.3366C1.4761 3.20184 2.32425 2.2235 3.36452 1.48321C4.40478 0.742925 5.60698 0.26215 6.87083 0.0809993C8.13468 -0.100152 9.42353 0.0235751 10.6298 0.441857C11.8361 0.860138 12.9249 1.56085 13.8054 2.48552C14.6858 3.41019 15.3324 4.53201 15.6911 5.75739C16.0498 6.98278 16.1103 8.27618 15.8676 9.5297C15.6248 10.7832 15.0858 11.9605 14.2955 12.9633L17.7356 16.4036C17.9072 16.5812 18.0021 16.8192 18 17.0662C17.9978 17.3132 17.8988 17.5494 17.7241 17.7241C17.5495 17.8987 17.3132 17.9978 17.0662 18C16.8192 18.0021 16.5813 17.9072 16.4036 17.7356L12.9635 14.2953C11.7829 15.226 10.364 15.8055 8.86941 15.9675C7.3748 16.1295 5.86478 15.8674 4.51217 15.2112C3.15955 14.555 2.019 13.5312 1.22102 12.2571C0.423049 10.9829 -0.000100927 9.50986 1.80565e-08 8.00644ZM7.06484 4.70939C7.06484 4.45955 7.16408 4.21995 7.34074 4.04329C7.5174 3.86662 7.75699 3.76738 8.00682 3.76738C9.13105 3.76738 10.2092 4.21399 11.0042 5.00897C11.7991 5.80395 12.2457 6.88217 12.2457 8.00644C12.2457 8.25628 12.1465 8.49588 11.9698 8.67255C11.7932 8.84921 11.5536 8.94846 11.3037 8.94846C11.0539 8.94846 10.8143 8.84921 10.6377 8.67255C10.461 8.49588 10.3618 8.25628 10.3618 8.00644C10.3618 7.38185 10.1137 6.78283 9.67202 6.34118C9.23038 5.89952 8.63139 5.65141 8.00682 5.65141C7.75699 5.65141 7.5174 5.55216 7.34074 5.3755C7.16408 5.19883 7.06484 4.95923 7.06484 4.70939Z" fill="white"/>
</svg>
